# xmcd CD database file generated by Grip 2.95
# 
# Track frame offsets:
#       150
#       16842
#       34852
#       49341
#       62686
#       79155
#       95880
#       107434
#       122571
#       136968
#       152055
#       166582
#       181497
# 
# Disc length: 2596 seconds
# 
# Revision: 3
# Processed by: cddbd v1.4b41PL1 Copyright (c) Steve Scherf et al.
# Submitted via: Grip 2.95
# 
DISCID=a20a220d
DTITLE=Vaya Con Dios - Time Flies
DYEAR=1900
DGENRE=
TTITLE0=Time Flies
TTITLE1=Forever Blue
TTITLE2=Farewell Song
TTITLE3=So Long Ago
TTITLE4=Still A Man
TTITLE5=Heading For A Fall
TTITLE6=Mothers And Daugthers
TTITLE7=Listen
TTITLE8=Bold And Untrue
TTITLE9=Muddy Waters
TTITLE10=For You
TTITLE11=Brave Jane
TTITLE12=At The Parallel
EXTD=
EXTT0=
EXTT1=
EXTT2=
EXTT3=
EXTT4=
EXTT5=
EXTT6=
EXTT7=
EXTT8=
EXTT9=
EXTT10=
EXTT11=
EXTT12=
PLAYORDER=
